<svg width="3879" height="2606" viewBox="0 0 3879 2606" fill="none" xmlns="http://www.w3.org/2000/svg">
<path d="M3879 0H8V2593H3879V0Z" fill="#EDF6FA"/>
<path fill-rule="evenodd" clip-rule="evenodd" d="M3.39504 0C1.14227 10.6967 0 21.4767 0 32.3314C0 331.534 867.896 574.086 1938.5 574.086C3009.1 574.086 3877 331.534 3877 32.3314C3877 21.4767 3875.86 10.6967 3873.6 0H3.39504Z" fill="#3B88C3" fill-opacity="0.2"/>
<path d="M2140 680.858C2140 680.858 2170.55 642.858 2213.12 680.858C2213.12 680.858 2224.03 640.798 2275.33 646.568" stroke="#18809E" stroke-width="4.68" stroke-miterlimit="10"/>
<path d="M946 258.915C946 259.855 946.06 260.825 946.15 261.725C946.841 268.749 950.121 275.265 955.353 280.003C960.584 284.74 967.392 287.361 974.45 287.355H1075.31C1091.06 287.355 1104.6 274.995 1104.75 259.275V258.915C1104.77 250.255 1101.66 241.878 1096.01 235.321C1090.35 228.764 1082.52 224.466 1073.95 223.215C1069.09 213.236 1061.35 204.943 1051.73 199.406C1042.11 193.868 1031.05 191.34 1019.98 192.147C1008.91 192.954 998.337 197.06 989.622 203.934C980.907 210.809 974.452 220.137 971.09 230.715C964.183 231.534 957.816 234.856 953.192 240.053C948.569 245.249 946.01 251.959 946 258.915Z" stroke="#0095C0" stroke-width="4.68" stroke-miterlimit="10"/>
<path d="M1885.44 2271.12C2976.78 2271.12 3876.88 2482.8 3876.88 2104.39C3876.88 1895.41 2976.78 1346 1885.44 1346C794.093 1346 8 1895.41 8 2104.39C8 2313.38 794.093 2271.12 1885.44 2271.12Z" fill="#3B88C3"/>
<rect x="8" y="2098.75" width="3871" height="506.436" fill="#3B88C3"/>
<path d="M1885.44 1731.5C2976.78 1731.5 3865 2419.53 3865 2041.12C3865 1832.14 2976.78 1299.5 1885.44 1299.5C794.093 1299.5 19.5 1832.14 19.5 2041.12C19.5 2250.11 794.093 1731.5 1885.44 1731.5Z" fill="#F4C280"/>
<path d="M3153.98 1558.99C3159.47 1546.54 3193.91 1502.27 3318.34 1557.24C3467.67 1623.2 3483.01 1689.47 3477.52 1701.91C3472.02 1714.35 3466.52 1726.8 3292.31 1649.84C3142.98 1583.88 3148.48 1571.43 3153.98 1558.99Z" fill="#F4900C"/>
<path d="M3059.83 1543.97C3069.09 1535.54 3094.36 1537.54 3109.16 1532.09C3123.96 1526.64 3133.21 1519.72 3145.54 1524.67C3157.87 1529.62 3161.56 1537.04 3173.28 1538.05C3185 1539.05 3193.63 1545.98 3188.69 1551.43C3183.76 1556.87 3144.91 1558.84 3119.02 1558.84C3093.14 1558.84 3048.41 1554.39 3059.83 1543.97V1543.97Z" fill="#FFAC33"/>
<path d="M3356.69 1591.49C3356.19 1592.6 3355.47 1593.6 3354.59 1594.44C3353.7 1595.28 3352.65 1595.93 3351.51 1596.36C3350.37 1596.79 3349.16 1597 3347.94 1596.96C3346.72 1596.93 3345.52 1596.65 3344.41 1596.15C3343.29 1595.65 3342.29 1594.93 3341.45 1594.05C3340.62 1593.16 3339.96 1592.11 3339.53 1590.97C3338.66 1588.67 3338.73 1586.11 3339.74 1583.87L3414.66 1407.59C3415.13 1406.44 3415.83 1405.39 3416.72 1404.52C3417.6 1403.64 3418.66 1402.95 3419.81 1402.49C3420.97 1402.03 3422.21 1401.8 3423.45 1401.83C3424.7 1401.86 3425.93 1402.13 3427.06 1402.64C3428.2 1403.16 3429.22 1403.89 3430.07 1404.81C3430.92 1405.72 3431.57 1406.8 3431.99 1407.97C3432.42 1409.14 3432.6 1410.39 3432.53 1411.63C3432.46 1412.87 3432.14 1414.09 3431.59 1415.21L3356.69 1591.49Z" fill="#66757F"/>
<path d="M3421.87 1414.22C3370.41 1391.09 3313.92 1405.21 3295.7 1445.75C3295.7 1445.75 3290.63 1457.04 3296.28 1459.59C3301.92 1462.13 3318.29 1455.91 3318.29 1455.91L3459.45 1519.36C3459.45 1519.36 3465.67 1535.73 3471.32 1538.27C3476.97 1540.81 3482.04 1529.52 3482.04 1529.52C3500.27 1488.97 3473.32 1437.35 3421.87 1414.22Z" fill="#DD2E44"/>
<path d="M3421.87 1414.22C3382.89 1396.7 3336.52 1415.36 3318.3 1455.9C3318.3 1455.9 3313.22 1467.2 3324.52 1472.27C3335.81 1477.36 3357.83 1473.67 3357.83 1473.67L3419.93 1501.59C3419.93 1501.59 3431.8 1520.5 3443.09 1525.58C3454.39 1530.65 3459.46 1519.35 3459.46 1519.35C3477.68 1478.82 3460.85 1431.74 3421.87 1414.22V1414.22Z" fill="#FFE8B6"/>
</svg>
